<mxfile host="app.diagrams.net" modified="2023-10-02T03:38:48.214Z" agent="Mozilla/5.0 (Windows NT 10.0; Win64; x64) AppleWebKit/537.36 (KHTML, like Gecko) Chrome/109.0.0.0 Safari/537.36" etag="pFdsSEviBVVxh-IWqDBm" version="22.0.0" type="device">
  <diagram name="Página-1" id="f5GseiKq4VdwDBkuDK2B">
    <mxGraphModel dx="2387" dy="756" grid="1" gridSize="10" guides="1" tooltips="1" connect="1" arrows="1" fold="1" page="1" pageScale="1" pageWidth="827" pageHeight="1169" background="#ffffff" math="0" shadow="0">
      <root>
        <mxCell id="0" />
        <mxCell id="1" parent="0" />
        <mxCell id="pLMOp0Dxs_1OmFM_lX3o-31" style="edgeStyle=orthogonalEdgeStyle;rounded=0;orthogonalLoop=1;jettySize=auto;html=1;entryX=0;entryY=0.5;entryDx=0;entryDy=0;" parent="1" edge="1">
          <mxGeometry relative="1" as="geometry">
            <mxPoint x="20" y="695" as="targetPoint" />
            <Array as="points">
              <mxPoint x="20" y="410" />
              <mxPoint x="-50" y="410" />
              <mxPoint x="-50" y="695" />
            </Array>
            <mxPoint x="20" y="420" as="sourcePoint" />
          </mxGeometry>
        </mxCell>
        <mxCell id="1l5nzyPw3KtESralJSwc-1" style="edgeStyle=orthogonalEdgeStyle;rounded=0;orthogonalLoop=1;jettySize=auto;html=1;exitX=1;exitY=0.5;exitDx=0;exitDy=0;entryX=0;entryY=0.5;entryDx=0;entryDy=0;" parent="1" source="pLMOp0Dxs_1OmFM_lX3o-1" target="pLMOp0Dxs_1OmFM_lX3o-6" edge="1">
          <mxGeometry relative="1" as="geometry" />
        </mxCell>
        <mxCell id="5MKI7rNFag6ZGJ4bUssc-26" style="edgeStyle=orthogonalEdgeStyle;rounded=0;orthogonalLoop=1;jettySize=auto;html=1;dashed=1;exitX=0;exitY=0.469;exitDx=0;exitDy=0;exitPerimeter=0;" edge="1" parent="1">
          <mxGeometry relative="1" as="geometry">
            <mxPoint x="19.999999999999773" y="385.0859999999999" as="sourcePoint" />
            <mxPoint x="565" y="785" as="targetPoint" />
            <Array as="points">
              <mxPoint x="-90" y="385" />
              <mxPoint x="-90" y="890" />
              <mxPoint x="565" y="890" />
            </Array>
          </mxGeometry>
        </mxCell>
        <mxCell id="pLMOp0Dxs_1OmFM_lX3o-1" value="Program(Client)" style="swimlane;html=1;fontStyle=1;align=center;verticalAlign=top;childLayout=stackLayout;horizontal=1;startSize=26;horizontalStack=0;resizeParent=1;resizeLast=0;collapsible=1;marginBottom=0;swimlaneFillColor=#ffffff;rounded=0;shadow=0;comic=0;labelBackgroundColor=none;strokeWidth=1;fillColor=none;fontFamily=Verdana;fontSize=12" parent="1" vertex="1">
          <mxGeometry x="20" y="350" width="160" height="80" as="geometry">
            <mxRectangle x="20" y="350" width="150" height="30" as="alternateBounds" />
          </mxGeometry>
        </mxCell>
        <mxCell id="pLMOp0Dxs_1OmFM_lX3o-4" value="" style="line;html=1;strokeWidth=1;fillColor=none;align=left;verticalAlign=middle;spacingTop=-1;spacingLeft=3;spacingRight=3;rotatable=0;labelPosition=right;points=[];portConstraint=eastwest;" parent="pLMOp0Dxs_1OmFM_lX3o-1" vertex="1">
          <mxGeometry y="26" width="160" height="44" as="geometry" />
        </mxCell>
        <mxCell id="pLMOp0Dxs_1OmFM_lX3o-6" value="&lt;font style=&quot;font-size: 14px;&quot;&gt;CentralDeComando(Invoker)&lt;/font&gt;" style="swimlane;html=1;fontStyle=1;align=center;verticalAlign=top;childLayout=stackLayout;horizontal=1;startSize=26;horizontalStack=0;resizeParent=1;resizeLast=0;collapsible=1;marginBottom=0;swimlaneFillColor=#ffffff;rounded=0;shadow=0;comic=0;labelBackgroundColor=none;strokeWidth=1;fillColor=none;fontFamily=Verdana;fontSize=12" parent="1" vertex="1">
          <mxGeometry x="224" y="120" width="386" height="340" as="geometry">
            <mxRectangle x="224" y="120" width="180" height="30" as="alternateBounds" />
          </mxGeometry>
        </mxCell>
        <mxCell id="5MKI7rNFag6ZGJ4bUssc-2" value="- StrPlanalto: string" style="text;strokeColor=none;fillColor=none;align=left;verticalAlign=top;spacingLeft=4;spacingRight=4;overflow=hidden;rotatable=0;points=[[0,0.5],[1,0.5]];portConstraint=eastwest;whiteSpace=wrap;html=1;" vertex="1" parent="pLMOp0Dxs_1OmFM_lX3o-6">
          <mxGeometry y="26" width="386" height="26" as="geometry" />
        </mxCell>
        <mxCell id="5MKI7rNFag6ZGJ4bUssc-3" value="- PlanaltoX: int" style="text;strokeColor=none;fillColor=none;align=left;verticalAlign=top;spacingLeft=4;spacingRight=4;overflow=hidden;rotatable=0;points=[[0,0.5],[1,0.5]];portConstraint=eastwest;whiteSpace=wrap;html=1;" vertex="1" parent="pLMOp0Dxs_1OmFM_lX3o-6">
          <mxGeometry y="52" width="386" height="26" as="geometry" />
        </mxCell>
        <mxCell id="5MKI7rNFag6ZGJ4bUssc-4" value="- PlanaltoY: int" style="text;strokeColor=none;fillColor=none;align=left;verticalAlign=top;spacingLeft=4;spacingRight=4;overflow=hidden;rotatable=0;points=[[0,0.5],[1,0.5]];portConstraint=eastwest;whiteSpace=wrap;html=1;" vertex="1" parent="pLMOp0Dxs_1OmFM_lX3o-6">
          <mxGeometry y="78" width="386" height="26" as="geometry" />
        </mxCell>
        <mxCell id="5MKI7rNFag6ZGJ4bUssc-5" value="- QuantidadeSondas: int" style="text;strokeColor=none;fillColor=none;align=left;verticalAlign=top;spacingLeft=4;spacingRight=4;overflow=hidden;rotatable=0;points=[[0,0.5],[1,0.5]];portConstraint=eastwest;whiteSpace=wrap;html=1;" vertex="1" parent="pLMOp0Dxs_1OmFM_lX3o-6">
          <mxGeometry y="104" width="386" height="26" as="geometry" />
        </mxCell>
        <mxCell id="5MKI7rNFag6ZGJ4bUssc-6" value="- Inputs: List&amp;lt;int&amp;gt;" style="text;strokeColor=none;fillColor=none;align=left;verticalAlign=top;spacingLeft=4;spacingRight=4;overflow=hidden;rotatable=0;points=[[0,0.5],[1,0.5]];portConstraint=eastwest;whiteSpace=wrap;html=1;" vertex="1" parent="pLMOp0Dxs_1OmFM_lX3o-6">
          <mxGeometry y="130" width="386" height="26" as="geometry" />
        </mxCell>
        <mxCell id="pLMOp0Dxs_1OmFM_lX3o-7" value="" style="line;html=1;strokeWidth=1;fillColor=none;align=left;verticalAlign=middle;spacingTop=-1;spacingLeft=3;spacingRight=3;rotatable=0;labelPosition=right;points=[];portConstraint=eastwest;" parent="pLMOp0Dxs_1OmFM_lX3o-6" vertex="1">
          <mxGeometry y="156" width="386" height="14" as="geometry" />
        </mxCell>
        <mxCell id="5MKI7rNFag6ZGJ4bUssc-7" value="+DefinirQuantidadeDeSondas(): void" style="text;strokeColor=none;fillColor=none;align=left;verticalAlign=top;spacingLeft=4;spacingRight=4;overflow=hidden;rotatable=0;points=[[0,0.5],[1,0.5]];portConstraint=eastwest;whiteSpace=wrap;html=1;" vertex="1" parent="pLMOp0Dxs_1OmFM_lX3o-6">
          <mxGeometry y="170" width="386" height="26" as="geometry" />
        </mxCell>
        <mxCell id="5MKI7rNFag6ZGJ4bUssc-8" value="+DefinirPosicoesEComandos(): void" style="text;strokeColor=none;fillColor=none;align=left;verticalAlign=top;spacingLeft=4;spacingRight=4;overflow=hidden;rotatable=0;points=[[0,0.5],[1,0.5]];portConstraint=eastwest;whiteSpace=wrap;html=1;" vertex="1" parent="pLMOp0Dxs_1OmFM_lX3o-6">
          <mxGeometry y="196" width="386" height="26" as="geometry" />
        </mxCell>
        <mxCell id="5MKI7rNFag6ZGJ4bUssc-9" value="+DefinirPlanalto(): void" style="text;strokeColor=none;fillColor=none;align=left;verticalAlign=top;spacingLeft=4;spacingRight=4;overflow=hidden;rotatable=0;points=[[0,0.5],[1,0.5]];portConstraint=eastwest;whiteSpace=wrap;html=1;" vertex="1" parent="pLMOp0Dxs_1OmFM_lX3o-6">
          <mxGeometry y="222" width="386" height="26" as="geometry" />
        </mxCell>
        <mxCell id="5MKI7rNFag6ZGJ4bUssc-10" value="+Validar(strPlanalto, strPosicao, strComandos): void" style="text;strokeColor=none;fillColor=none;align=left;verticalAlign=top;spacingLeft=4;spacingRight=4;overflow=hidden;rotatable=0;points=[[0,0.5],[1,0.5]];portConstraint=eastwest;whiteSpace=wrap;html=1;" vertex="1" parent="pLMOp0Dxs_1OmFM_lX3o-6">
          <mxGeometry y="248" width="386" height="26" as="geometry" />
        </mxCell>
        <mxCell id="5MKI7rNFag6ZGJ4bUssc-11" value="+EnivarSonda(strPosicao, strComandos, planaltoX, planaltoY): void" style="text;strokeColor=none;fillColor=none;align=left;verticalAlign=top;spacingLeft=4;spacingRight=4;overflow=hidden;rotatable=0;points=[[0,0.5],[1,0.5]];portConstraint=eastwest;whiteSpace=wrap;html=1;" vertex="1" parent="pLMOp0Dxs_1OmFM_lX3o-6">
          <mxGeometry y="274" width="386" height="26" as="geometry" />
        </mxCell>
        <mxCell id="5MKI7rNFag6ZGJ4bUssc-12" value="+IniciarExploração(): void" style="text;strokeColor=none;fillColor=none;align=left;verticalAlign=top;spacingLeft=4;spacingRight=4;overflow=hidden;rotatable=0;points=[[0,0.5],[1,0.5]];portConstraint=eastwest;whiteSpace=wrap;html=1;" vertex="1" parent="pLMOp0Dxs_1OmFM_lX3o-6">
          <mxGeometry y="300" width="386" height="26" as="geometry" />
        </mxCell>
        <mxCell id="pLMOp0Dxs_1OmFM_lX3o-8" value="IGirarComando(ICommand)" style="swimlane;html=1;fontStyle=1;align=center;verticalAlign=top;childLayout=stackLayout;horizontal=1;startSize=26;horizontalStack=0;resizeParent=1;resizeLast=0;collapsible=1;marginBottom=0;swimlaneFillColor=#ffffff;rounded=0;shadow=0;comic=0;labelBackgroundColor=none;strokeWidth=1;fillColor=none;fontFamily=Verdana;fontSize=12" parent="1" vertex="1">
          <mxGeometry x="670" y="120" width="200" height="100" as="geometry" />
        </mxCell>
        <mxCell id="pLMOp0Dxs_1OmFM_lX3o-9" value="" style="line;html=1;strokeWidth=1;fillColor=none;align=left;verticalAlign=middle;spacingTop=-1;spacingLeft=3;spacingRight=3;rotatable=0;labelPosition=right;points=[];portConstraint=eastwest;" parent="pLMOp0Dxs_1OmFM_lX3o-8" vertex="1">
          <mxGeometry y="26" width="200" height="44" as="geometry" />
        </mxCell>
        <mxCell id="pLMOp0Dxs_1OmFM_lX3o-26" value="+Executar()" style="text;html=1;strokeColor=none;fillColor=none;align=left;verticalAlign=top;spacingLeft=4;spacingRight=4;whiteSpace=wrap;overflow=hidden;rotatable=0;points=[[0,0.5],[1,0.5]];portConstraint=eastwest;" parent="pLMOp0Dxs_1OmFM_lX3o-8" vertex="1">
          <mxGeometry y="70" width="200" height="26" as="geometry" />
        </mxCell>
        <mxCell id="pLMOp0Dxs_1OmFM_lX3o-14" value="&lt;font style=&quot;font-size: 14px;&quot;&gt;Sonda(Reciever)&lt;/font&gt;" style="swimlane;html=1;fontStyle=1;align=center;verticalAlign=top;childLayout=stackLayout;horizontal=1;startSize=26;horizontalStack=0;resizeParent=1;resizeLast=0;collapsible=1;marginBottom=0;swimlaneFillColor=#ffffff;rounded=0;shadow=0;comic=0;labelBackgroundColor=none;strokeWidth=1;fillColor=none;fontFamily=Verdana;fontSize=12" parent="1" vertex="1">
          <mxGeometry x="20" y="480" width="280" height="392" as="geometry" />
        </mxCell>
        <mxCell id="5MKI7rNFag6ZGJ4bUssc-13" value="- PosicaoX: int" style="text;strokeColor=none;fillColor=none;align=left;verticalAlign=top;spacingLeft=4;spacingRight=4;overflow=hidden;rotatable=0;points=[[0,0.5],[1,0.5]];portConstraint=eastwest;whiteSpace=wrap;html=1;" vertex="1" parent="pLMOp0Dxs_1OmFM_lX3o-14">
          <mxGeometry y="26" width="280" height="26" as="geometry" />
        </mxCell>
        <mxCell id="5MKI7rNFag6ZGJ4bUssc-14" value="- PosicaoY: string" style="text;strokeColor=none;fillColor=none;align=left;verticalAlign=top;spacingLeft=4;spacingRight=4;overflow=hidden;rotatable=0;points=[[0,0.5],[1,0.5]];portConstraint=eastwest;whiteSpace=wrap;html=1;" vertex="1" parent="pLMOp0Dxs_1OmFM_lX3o-14">
          <mxGeometry y="52" width="280" height="26" as="geometry" />
        </mxCell>
        <mxCell id="5MKI7rNFag6ZGJ4bUssc-15" value="- Direcao: string" style="text;strokeColor=none;fillColor=none;align=left;verticalAlign=top;spacingLeft=4;spacingRight=4;overflow=hidden;rotatable=0;points=[[0,0.5],[1,0.5]];portConstraint=eastwest;whiteSpace=wrap;html=1;" vertex="1" parent="pLMOp0Dxs_1OmFM_lX3o-14">
          <mxGeometry y="78" width="280" height="26" as="geometry" />
        </mxCell>
        <mxCell id="5MKI7rNFag6ZGJ4bUssc-16" value="- LimiteX: int" style="text;strokeColor=none;fillColor=none;align=left;verticalAlign=top;spacingLeft=4;spacingRight=4;overflow=hidden;rotatable=0;points=[[0,0.5],[1,0.5]];portConstraint=eastwest;whiteSpace=wrap;html=1;" vertex="1" parent="pLMOp0Dxs_1OmFM_lX3o-14">
          <mxGeometry y="104" width="280" height="26" as="geometry" />
        </mxCell>
        <mxCell id="5MKI7rNFag6ZGJ4bUssc-17" value="- LimiteY: int" style="text;strokeColor=none;fillColor=none;align=left;verticalAlign=top;spacingLeft=4;spacingRight=4;overflow=hidden;rotatable=0;points=[[0,0.5],[1,0.5]];portConstraint=eastwest;whiteSpace=wrap;html=1;" vertex="1" parent="pLMOp0Dxs_1OmFM_lX3o-14">
          <mxGeometry y="130" width="280" height="26" as="geometry" />
        </mxCell>
        <mxCell id="5MKI7rNFag6ZGJ4bUssc-18" value="- IniciouMovimento: bool" style="text;strokeColor=none;fillColor=none;align=left;verticalAlign=top;spacingLeft=4;spacingRight=4;overflow=hidden;rotatable=0;points=[[0,0.5],[1,0.5]];portConstraint=eastwest;whiteSpace=wrap;html=1;" vertex="1" parent="pLMOp0Dxs_1OmFM_lX3o-14">
          <mxGeometry y="156" width="280" height="26" as="geometry" />
        </mxCell>
        <mxCell id="pLMOp0Dxs_1OmFM_lX3o-15" value="" style="line;html=1;strokeWidth=1;fillColor=none;align=left;verticalAlign=middle;spacingTop=-1;spacingLeft=3;spacingRight=3;rotatable=0;labelPosition=right;points=[];portConstraint=eastwest;" parent="pLMOp0Dxs_1OmFM_lX3o-14" vertex="1">
          <mxGeometry y="182" width="280" height="18" as="geometry" />
        </mxCell>
        <mxCell id="pLMOp0Dxs_1OmFM_lX3o-27" value="+ ExecutarComando(comando): void" style="text;strokeColor=none;fillColor=none;align=left;verticalAlign=top;spacingLeft=4;spacingRight=4;overflow=hidden;rotatable=0;points=[[0,0.5],[1,0.5]];portConstraint=eastwest;whiteSpace=wrap;html=1;" parent="pLMOp0Dxs_1OmFM_lX3o-14" vertex="1">
          <mxGeometry y="200" width="280" height="26" as="geometry" />
        </mxCell>
        <mxCell id="5MKI7rNFag6ZGJ4bUssc-19" value="+ ExecutarComando(comando): void" style="text;strokeColor=none;fillColor=none;align=left;verticalAlign=top;spacingLeft=4;spacingRight=4;overflow=hidden;rotatable=0;points=[[0,0.5],[1,0.5]];portConstraint=eastwest;whiteSpace=wrap;html=1;" vertex="1" parent="pLMOp0Dxs_1OmFM_lX3o-14">
          <mxGeometry y="226" width="280" height="26" as="geometry" />
        </mxCell>
        <mxCell id="5MKI7rNFag6ZGJ4bUssc-29" value="+ ChecarPosicao(): void" style="text;strokeColor=none;fillColor=none;align=left;verticalAlign=top;spacingLeft=4;spacingRight=4;overflow=hidden;rotatable=0;points=[[0,0.5],[1,0.5]];portConstraint=eastwest;whiteSpace=wrap;html=1;" vertex="1" parent="pLMOp0Dxs_1OmFM_lX3o-14">
          <mxGeometry y="252" width="280" height="26" as="geometry" />
        </mxCell>
        <mxCell id="5MKI7rNFag6ZGJ4bUssc-28" value="+ ChecarPosicao(): void" style="text;strokeColor=none;fillColor=none;align=left;verticalAlign=top;spacingLeft=4;spacingRight=4;overflow=hidden;rotatable=0;points=[[0,0.5],[1,0.5]];portConstraint=eastwest;whiteSpace=wrap;html=1;" vertex="1" parent="pLMOp0Dxs_1OmFM_lX3o-14">
          <mxGeometry y="278" width="280" height="26" as="geometry" />
        </mxCell>
        <mxCell id="5MKI7rNFag6ZGJ4bUssc-20" value="+ ChecarPosicao(): void" style="text;strokeColor=none;fillColor=none;align=left;verticalAlign=top;spacingLeft=4;spacingRight=4;overflow=hidden;rotatable=0;points=[[0,0.5],[1,0.5]];portConstraint=eastwest;whiteSpace=wrap;html=1;" vertex="1" parent="pLMOp0Dxs_1OmFM_lX3o-14">
          <mxGeometry y="304" width="280" height="26" as="geometry" />
        </mxCell>
        <mxCell id="5MKI7rNFag6ZGJ4bUssc-21" value="+ Pousar(localizacaoInicial): void" style="text;strokeColor=none;fillColor=none;align=left;verticalAlign=top;spacingLeft=4;spacingRight=4;overflow=hidden;rotatable=0;points=[[0,0.5],[1,0.5]];portConstraint=eastwest;whiteSpace=wrap;html=1;" vertex="1" parent="pLMOp0Dxs_1OmFM_lX3o-14">
          <mxGeometry y="330" width="280" height="26" as="geometry" />
        </mxCell>
        <mxCell id="5MKI7rNFag6ZGJ4bUssc-22" value="+ EstabelecerLimites(planaltoX, planaltoY): void" style="text;strokeColor=none;fillColor=none;align=left;verticalAlign=top;spacingLeft=4;spacingRight=4;overflow=hidden;rotatable=0;points=[[0,0.5],[1,0.5]];portConstraint=eastwest;whiteSpace=wrap;html=1;" vertex="1" parent="pLMOp0Dxs_1OmFM_lX3o-14">
          <mxGeometry y="356" width="280" height="26" as="geometry" />
        </mxCell>
        <mxCell id="pLMOp0Dxs_1OmFM_lX3o-20" value="Girar&lt;font style=&quot;font-size: 9px;&quot;&gt;(ConcreteCommand)&lt;/font&gt;" style="swimlane;html=1;fontStyle=1;align=center;verticalAlign=top;childLayout=stackLayout;horizontal=1;startSize=26;horizontalStack=0;resizeParent=1;resizeLast=0;collapsible=1;marginBottom=0;swimlaneFillColor=#ffffff;rounded=0;shadow=0;comic=0;labelBackgroundColor=none;strokeWidth=1;fillColor=none;fontFamily=Verdana;fontSize=12" parent="1" vertex="1">
          <mxGeometry x="480" y="480" width="163.64" height="130" as="geometry" />
        </mxCell>
        <mxCell id="pLMOp0Dxs_1OmFM_lX3o-43" style="edgeStyle=orthogonalEdgeStyle;rounded=0;orthogonalLoop=1;jettySize=auto;html=1;endArrow=block;endFill=0;entryX=0;entryY=0.385;entryDx=0;entryDy=0;entryPerimeter=0;" parent="pLMOp0Dxs_1OmFM_lX3o-20" edge="1">
          <mxGeometry relative="1" as="geometry">
            <mxPoint x="150" as="sourcePoint" />
            <mxPoint x="190" y="-269.99" as="targetPoint" />
            <Array as="points">
              <mxPoint x="150" />
              <mxPoint x="150" y="-270" />
            </Array>
          </mxGeometry>
        </mxCell>
        <mxCell id="pLMOp0Dxs_1OmFM_lX3o-24" value="+Sentido: string" style="text;strokeColor=none;fillColor=none;spacingLeft=4;spacingRight=4;overflow=hidden;rotatable=0;points=[[0,0.5],[1,0.5]];portConstraint=eastwest;fontSize=12;whiteSpace=wrap;html=1;" parent="pLMOp0Dxs_1OmFM_lX3o-20" vertex="1">
          <mxGeometry y="26" width="163.64" height="24" as="geometry" />
        </mxCell>
        <mxCell id="pLMOp0Dxs_1OmFM_lX3o-21" value="" style="line;html=1;strokeWidth=1;fillColor=none;align=left;verticalAlign=middle;spacingTop=-1;spacingLeft=3;spacingRight=3;rotatable=0;labelPosition=right;points=[];portConstraint=eastwest;" parent="pLMOp0Dxs_1OmFM_lX3o-20" vertex="1">
          <mxGeometry y="50" width="163.64" height="34" as="geometry" />
        </mxCell>
        <mxCell id="pLMOp0Dxs_1OmFM_lX3o-25" value="-Executar(direcao):string" style="text;html=1;strokeColor=none;fillColor=none;align=left;verticalAlign=top;spacingLeft=4;spacingRight=4;whiteSpace=wrap;overflow=hidden;rotatable=0;points=[[0,0.5],[1,0.5]];portConstraint=eastwest;" parent="pLMOp0Dxs_1OmFM_lX3o-20" vertex="1">
          <mxGeometry y="84" width="163.64" height="26" as="geometry" />
        </mxCell>
        <mxCell id="pLMOp0Dxs_1OmFM_lX3o-23" value="Sonda.&lt;br&gt;ExecutarComando()" style="shape=note;size=20;whiteSpace=wrap;html=1;" parent="1" vertex="1">
          <mxGeometry x="330" y="480" width="120" height="90" as="geometry" />
        </mxCell>
        <mxCell id="pLMOp0Dxs_1OmFM_lX3o-34" value="" style="endArrow=open;html=1;endSize=12;startArrow=diamondThin;startSize=14;startFill=0;edgeStyle=orthogonalEdgeStyle;align=left;verticalAlign=bottom;rounded=0;" parent="1" edge="1">
          <mxGeometry x="-1" y="3" relative="1" as="geometry">
            <mxPoint x="610" y="170" as="sourcePoint" />
            <mxPoint x="670" y="170" as="targetPoint" />
          </mxGeometry>
        </mxCell>
        <mxCell id="pLMOp0Dxs_1OmFM_lX3o-38" value="" style="endArrow=none;endSize=12;dashed=1;html=1;rounded=0;endFill=0;" parent="1" edge="1">
          <mxGeometry x="-0.0064" width="160" relative="1" as="geometry">
            <mxPoint x="450" y="530" as="sourcePoint" />
            <mxPoint x="480" y="530" as="targetPoint" />
            <mxPoint as="offset" />
          </mxGeometry>
        </mxCell>
        <mxCell id="1l5nzyPw3KtESralJSwc-3" style="edgeStyle=orthogonalEdgeStyle;rounded=0;orthogonalLoop=1;jettySize=auto;html=1;exitX=0;exitY=0.5;exitDx=0;exitDy=0;exitPerimeter=0;dashed=1;" parent="1" source="pLMOp0Dxs_1OmFM_lX3o-23" target="5MKI7rNFag6ZGJ4bUssc-13" edge="1">
          <mxGeometry relative="1" as="geometry">
            <Array as="points">
              <mxPoint x="330" y="529" />
            </Array>
          </mxGeometry>
        </mxCell>
        <mxCell id="GBtfxvv_HYspMfv3q2mU-1" value="Mover&lt;font style=&quot;font-size: 9px;&quot;&gt;(ConcreteCommand)&lt;/font&gt;" style="swimlane;html=1;fontStyle=1;align=center;verticalAlign=top;childLayout=stackLayout;horizontal=1;startSize=26;horizontalStack=0;resizeParent=1;resizeLast=0;collapsible=1;marginBottom=0;swimlaneFillColor=#ffffff;rounded=0;shadow=0;comic=0;labelBackgroundColor=none;strokeWidth=1;fillColor=none;fontFamily=Verdana;fontSize=12" parent="1" vertex="1">
          <mxGeometry x="483" y="639" width="197" height="146" as="geometry" />
        </mxCell>
        <mxCell id="GBtfxvv_HYspMfv3q2mU-2" value="+PosicaoX: int" style="text;strokeColor=none;fillColor=none;spacingLeft=4;spacingRight=4;overflow=hidden;rotatable=0;points=[[0,0.5],[1,0.5]];portConstraint=eastwest;fontSize=12;whiteSpace=wrap;html=1;" parent="GBtfxvv_HYspMfv3q2mU-1" vertex="1">
          <mxGeometry y="26" width="197" height="30" as="geometry" />
        </mxCell>
        <mxCell id="5MKI7rNFag6ZGJ4bUssc-30" value="+PosicaoY: int" style="text;strokeColor=none;fillColor=none;spacingLeft=4;spacingRight=4;overflow=hidden;rotatable=0;points=[[0,0.5],[1,0.5]];portConstraint=eastwest;fontSize=12;whiteSpace=wrap;html=1;" vertex="1" parent="GBtfxvv_HYspMfv3q2mU-1">
          <mxGeometry y="56" width="197" height="30" as="geometry" />
        </mxCell>
        <mxCell id="GBtfxvv_HYspMfv3q2mU-3" value="" style="line;html=1;strokeWidth=1;fillColor=none;align=left;verticalAlign=middle;spacingTop=-1;spacingLeft=3;spacingRight=3;rotatable=0;labelPosition=right;points=[];portConstraint=eastwest;" parent="GBtfxvv_HYspMfv3q2mU-1" vertex="1">
          <mxGeometry y="86" width="197" height="34" as="geometry" />
        </mxCell>
        <mxCell id="GBtfxvv_HYspMfv3q2mU-4" value="+Executar(direcao):Tuple&amp;lt;int,int&amp;gt;" style="text;html=1;strokeColor=none;fillColor=none;align=left;verticalAlign=top;spacingLeft=4;spacingRight=4;whiteSpace=wrap;overflow=hidden;rotatable=0;points=[[0,0.5],[1,0.5]];portConstraint=eastwest;" parent="GBtfxvv_HYspMfv3q2mU-1" vertex="1">
          <mxGeometry y="120" width="197" height="26" as="geometry" />
        </mxCell>
        <mxCell id="5MKI7rNFag6ZGJ4bUssc-23" value="&lt;font style=&quot;font-size: 14px;&quot;&gt;Validador&lt;/font&gt;" style="swimlane;html=1;fontStyle=1;align=center;verticalAlign=top;childLayout=stackLayout;horizontal=1;startSize=26;horizontalStack=0;resizeParent=1;resizeLast=0;collapsible=1;marginBottom=0;swimlaneFillColor=#ffffff;rounded=0;shadow=0;comic=0;labelBackgroundColor=none;strokeWidth=1;fillColor=none;fontFamily=Verdana;fontSize=12" vertex="1" parent="1">
          <mxGeometry x="-10" y="120" width="190" height="198" as="geometry" />
        </mxCell>
        <mxCell id="5MKI7rNFag6ZGJ4bUssc-42" value="-TamanhoPlanalto: string" style="text;html=1;strokeColor=none;fillColor=none;align=left;verticalAlign=top;spacingLeft=4;spacingRight=4;whiteSpace=wrap;overflow=hidden;rotatable=0;points=[[0,0.5],[1,0.5]];portConstraint=eastwest;" vertex="1" parent="5MKI7rNFag6ZGJ4bUssc-23">
          <mxGeometry y="26" width="190" height="26" as="geometry" />
        </mxCell>
        <mxCell id="5MKI7rNFag6ZGJ4bUssc-43" value="-Posicao: string" style="text;html=1;strokeColor=none;fillColor=none;align=left;verticalAlign=top;spacingLeft=4;spacingRight=4;whiteSpace=wrap;overflow=hidden;rotatable=0;points=[[0,0.5],[1,0.5]];portConstraint=eastwest;" vertex="1" parent="5MKI7rNFag6ZGJ4bUssc-23">
          <mxGeometry y="52" width="190" height="26" as="geometry" />
        </mxCell>
        <mxCell id="5MKI7rNFag6ZGJ4bUssc-44" value="-Comandos: string" style="text;html=1;strokeColor=none;fillColor=none;align=left;verticalAlign=top;spacingLeft=4;spacingRight=4;whiteSpace=wrap;overflow=hidden;rotatable=0;points=[[0,0.5],[1,0.5]];portConstraint=eastwest;" vertex="1" parent="5MKI7rNFag6ZGJ4bUssc-23">
          <mxGeometry y="78" width="190" height="26" as="geometry" />
        </mxCell>
        <mxCell id="5MKI7rNFag6ZGJ4bUssc-24" value="" style="line;html=1;strokeWidth=1;fillColor=none;align=left;verticalAlign=middle;spacingTop=-1;spacingLeft=3;spacingRight=3;rotatable=0;labelPosition=right;points=[];portConstraint=eastwest;" vertex="1" parent="5MKI7rNFag6ZGJ4bUssc-23">
          <mxGeometry y="104" width="190" height="16" as="geometry" />
        </mxCell>
        <mxCell id="5MKI7rNFag6ZGJ4bUssc-25" value="+ValidarPlanalto():bool" style="text;html=1;strokeColor=none;fillColor=none;align=left;verticalAlign=top;spacingLeft=4;spacingRight=4;whiteSpace=wrap;overflow=hidden;rotatable=0;points=[[0,0.5],[1,0.5]];portConstraint=eastwest;" vertex="1" parent="5MKI7rNFag6ZGJ4bUssc-23">
          <mxGeometry y="120" width="190" height="26" as="geometry" />
        </mxCell>
        <mxCell id="5MKI7rNFag6ZGJ4bUssc-46" value="+ValidarPosicaoSnda():bool" style="text;html=1;strokeColor=none;fillColor=none;align=left;verticalAlign=top;spacingLeft=4;spacingRight=4;whiteSpace=wrap;overflow=hidden;rotatable=0;points=[[0,0.5],[1,0.5]];portConstraint=eastwest;" vertex="1" parent="5MKI7rNFag6ZGJ4bUssc-23">
          <mxGeometry y="146" width="190" height="26" as="geometry" />
        </mxCell>
        <mxCell id="5MKI7rNFag6ZGJ4bUssc-45" value="+ValidarComandosSonda():bool" style="text;html=1;strokeColor=none;fillColor=none;align=left;verticalAlign=top;spacingLeft=4;spacingRight=4;whiteSpace=wrap;overflow=hidden;rotatable=0;points=[[0,0.5],[1,0.5]];portConstraint=eastwest;" vertex="1" parent="5MKI7rNFag6ZGJ4bUssc-23">
          <mxGeometry y="172" width="190" height="26" as="geometry" />
        </mxCell>
        <mxCell id="5MKI7rNFag6ZGJ4bUssc-27" value="" style="endArrow=classicThin;endSize=12;dashed=1;html=1;rounded=0;endFill=1;" edge="1" parent="1">
          <mxGeometry width="160" relative="1" as="geometry">
            <mxPoint x="400" y="890" as="sourcePoint" />
            <mxPoint x="480" y="600" as="targetPoint" />
            <Array as="points">
              <mxPoint x="400" y="601" />
            </Array>
            <mxPoint as="offset" />
          </mxGeometry>
        </mxCell>
        <mxCell id="5MKI7rNFag6ZGJ4bUssc-33" value="" style="endArrow=open;html=1;endSize=12;startArrow=diamondThin;startSize=14;startFill=0;edgeStyle=orthogonalEdgeStyle;align=left;verticalAlign=bottom;rounded=0;exitX=0;exitY=0.5;exitDx=0;exitDy=0;" edge="1" parent="1">
          <mxGeometry x="-1" y="3" relative="1" as="geometry">
            <mxPoint x="224" y="440" as="sourcePoint" />
            <mxPoint x="190" y="480" as="targetPoint" />
          </mxGeometry>
        </mxCell>
        <mxCell id="5MKI7rNFag6ZGJ4bUssc-36" value="1" style="edgeLabel;html=1;align=center;verticalAlign=middle;resizable=0;points=[];" vertex="1" connectable="0" parent="5MKI7rNFag6ZGJ4bUssc-33">
          <mxGeometry x="-0.7539" y="-1" relative="1" as="geometry">
            <mxPoint y="-19" as="offset" />
          </mxGeometry>
        </mxCell>
        <mxCell id="5MKI7rNFag6ZGJ4bUssc-37" value="&lt;font style=&quot;font-size: 14px;&quot;&gt;*&lt;/font&gt;" style="edgeLabel;html=1;align=center;verticalAlign=middle;resizable=0;points=[];" vertex="1" connectable="0" parent="5MKI7rNFag6ZGJ4bUssc-33">
          <mxGeometry x="0.7201" y="-6" relative="1" as="geometry">
            <mxPoint as="offset" />
          </mxGeometry>
        </mxCell>
        <mxCell id="5MKI7rNFag6ZGJ4bUssc-38" value="IMoverComando(ICommand)" style="swimlane;html=1;fontStyle=1;align=center;verticalAlign=top;childLayout=stackLayout;horizontal=1;startSize=26;horizontalStack=0;resizeParent=1;resizeLast=0;collapsible=1;marginBottom=0;swimlaneFillColor=#ffffff;rounded=0;shadow=0;comic=0;labelBackgroundColor=none;strokeWidth=1;fillColor=none;fontFamily=Verdana;fontSize=12" vertex="1" parent="1">
          <mxGeometry x="670" y="230" width="200" height="100" as="geometry" />
        </mxCell>
        <mxCell id="5MKI7rNFag6ZGJ4bUssc-39" value="" style="line;html=1;strokeWidth=1;fillColor=none;align=left;verticalAlign=middle;spacingTop=-1;spacingLeft=3;spacingRight=3;rotatable=0;labelPosition=right;points=[];portConstraint=eastwest;" vertex="1" parent="5MKI7rNFag6ZGJ4bUssc-38">
          <mxGeometry y="26" width="200" height="44" as="geometry" />
        </mxCell>
        <mxCell id="5MKI7rNFag6ZGJ4bUssc-40" value="+Executar()" style="text;html=1;strokeColor=none;fillColor=none;align=left;verticalAlign=top;spacingLeft=4;spacingRight=4;whiteSpace=wrap;overflow=hidden;rotatable=0;points=[[0,0.5],[1,0.5]];portConstraint=eastwest;" vertex="1" parent="5MKI7rNFag6ZGJ4bUssc-38">
          <mxGeometry y="70" width="200" height="26" as="geometry" />
        </mxCell>
        <mxCell id="5MKI7rNFag6ZGJ4bUssc-41" style="edgeStyle=orthogonalEdgeStyle;rounded=0;orthogonalLoop=1;jettySize=auto;html=1;exitX=1;exitY=0.5;exitDx=0;exitDy=0;entryX=0.5;entryY=1;entryDx=0;entryDy=0;endArrow=block;endFill=0;" edge="1" parent="1" source="5MKI7rNFag6ZGJ4bUssc-30" target="5MKI7rNFag6ZGJ4bUssc-38">
          <mxGeometry relative="1" as="geometry" />
        </mxCell>
        <mxCell id="5MKI7rNFag6ZGJ4bUssc-47" value="" style="endArrow=open;html=1;endSize=12;startArrow=diamondThin;startSize=14;startFill=0;edgeStyle=orthogonalEdgeStyle;align=left;verticalAlign=bottom;rounded=0;entryX=1;entryY=0.375;entryDx=0;entryDy=0;entryPerimeter=0;exitX=-0.001;exitY=0.233;exitDx=0;exitDy=0;exitPerimeter=0;" edge="1" parent="1" source="5MKI7rNFag6ZGJ4bUssc-5" target="5MKI7rNFag6ZGJ4bUssc-24">
          <mxGeometry x="-1" y="3" relative="1" as="geometry">
            <mxPoint x="208.5" y="230" as="sourcePoint" />
            <mxPoint x="190" y="230" as="targetPoint" />
            <Array as="points" />
          </mxGeometry>
        </mxCell>
      </root>
    </mxGraphModel>
  </diagram>
</mxfile>
